<svg width="618" height="206" viewBox="0 0 618 206" fill="none" xmlns="http://www.w3.org/2000/svg">
<path d="M548.269 171.067V191.819H538.313V155.923H547.801V162.257H548.222C549.017 160.169 550.349 158.517 552.218 157.302C554.088 156.071 556.355 155.456 559.019 155.456C561.512 155.456 563.685 156.001 565.539 157.092C567.393 158.183 568.834 159.741 569.862 161.766C570.891 163.776 571.405 166.175 571.405 168.964V191.819H561.449V170.74C561.465 168.543 560.904 166.829 559.767 165.599C558.629 164.352 557.064 163.729 555.069 163.729C553.729 163.729 552.545 164.017 551.517 164.594C550.504 165.17 549.71 166.011 549.133 167.118C548.573 168.208 548.284 169.525 548.269 171.067Z" fill="#F1F1F1"/>
<path d="M514.176 192.521C510.545 192.521 507.406 191.749 504.758 190.207C502.125 188.649 500.091 186.483 498.658 183.71C497.225 180.921 496.508 177.689 496.508 174.012C496.508 170.304 497.225 167.063 498.658 164.29C500.091 161.501 502.125 159.335 504.758 157.793C507.406 156.235 510.545 155.456 514.176 155.456C517.806 155.456 520.937 156.235 523.57 157.793C526.219 159.335 528.26 161.501 529.693 164.29C531.126 167.063 531.843 170.304 531.843 174.012C531.843 177.689 531.126 180.921 529.693 183.71C528.26 186.483 526.219 188.649 523.57 190.207C520.937 191.749 517.806 192.521 514.176 192.521ZM514.222 184.809C515.874 184.809 517.253 184.341 518.359 183.406C519.465 182.456 520.298 181.163 520.859 179.527C521.436 177.891 521.724 176.029 521.724 173.942C521.724 171.854 521.436 169.992 520.859 168.356C520.298 166.72 519.465 165.427 518.359 164.477C517.253 163.526 515.874 163.051 514.222 163.051C512.555 163.051 511.153 163.526 510.016 164.477C508.894 165.427 508.045 166.72 507.468 168.356C506.908 169.992 506.627 171.854 506.627 173.942C506.627 176.029 506.908 177.891 507.468 179.527C508.045 181.163 508.894 182.456 510.016 183.406C511.153 184.341 512.555 184.809 514.222 184.809Z" fill="#F1F1F1"/>
<path d="M480.02 191.82V155.924H489.976V191.82H480.02ZM485.021 151.297C483.541 151.297 482.271 150.806 481.212 149.824C480.168 148.827 479.646 147.635 479.646 146.249C479.646 144.878 480.168 143.701 481.212 142.72C482.271 141.723 483.541 141.224 485.021 141.224C486.501 141.224 487.763 141.723 488.807 142.72C489.867 143.701 490.396 144.878 490.396 146.249C490.396 147.635 489.867 148.827 488.807 149.824C487.763 150.806 486.501 151.297 485.021 151.297Z" fill="#F1F1F1"/>
<path d="M473.535 155.924V163.402H451.918V155.924H473.535ZM456.826 147.324H466.781V180.789C466.781 181.708 466.921 182.425 467.202 182.939C467.482 183.438 467.872 183.788 468.37 183.991C468.884 184.193 469.476 184.295 470.146 184.295C470.614 184.295 471.081 184.256 471.549 184.178C472.016 184.084 472.374 184.014 472.624 183.968L474.189 191.376C473.691 191.532 472.99 191.711 472.086 191.913C471.182 192.131 470.084 192.264 468.791 192.311C466.392 192.404 464.288 192.085 462.481 191.352C460.689 190.62 459.295 189.483 458.298 187.94C457.301 186.398 456.81 184.451 456.826 182.098V147.324Z" fill="#F1F1F1"/>
<path d="M426.509 192.497C424.219 192.497 422.178 192.1 420.386 191.305C418.595 190.495 417.177 189.303 416.133 187.73C415.105 186.141 414.591 184.162 414.591 181.794C414.591 179.8 414.957 178.125 415.689 176.769C416.421 175.414 417.418 174.323 418.68 173.498C419.942 172.672 421.376 172.049 422.98 171.628C424.601 171.207 426.299 170.911 428.075 170.74C430.163 170.522 431.845 170.319 433.123 170.132C434.401 169.93 435.328 169.634 435.904 169.244C436.48 168.855 436.769 168.278 436.769 167.515V167.375C436.769 165.895 436.301 164.749 435.366 163.939C434.447 163.129 433.139 162.724 431.44 162.724C429.649 162.724 428.223 163.121 427.164 163.916C426.104 164.695 425.403 165.676 425.06 166.861L415.853 166.113C416.32 163.932 417.239 162.046 418.61 160.457C419.981 158.852 421.75 157.622 423.915 156.765C426.096 155.892 428.62 155.456 431.487 155.456C433.481 155.456 435.39 155.69 437.213 156.157C439.051 156.625 440.679 157.349 442.097 158.331C443.53 159.312 444.66 160.574 445.486 162.116C446.311 163.643 446.724 165.474 446.724 167.608V191.819H437.283V186.842H437.002C436.426 187.963 435.655 188.953 434.689 189.81C433.723 190.651 432.562 191.313 431.207 191.796C429.851 192.263 428.285 192.497 426.509 192.497ZM429.36 185.626C430.825 185.626 432.118 185.338 433.24 184.762C434.362 184.17 435.242 183.375 435.881 182.378C436.519 181.381 436.839 180.251 436.839 178.989V175.18C436.527 175.383 436.099 175.57 435.553 175.741C435.024 175.897 434.424 176.045 433.754 176.185C433.084 176.31 432.414 176.427 431.744 176.536C431.074 176.629 430.467 176.715 429.921 176.793C428.753 176.964 427.732 177.237 426.86 177.611C425.987 177.985 425.31 178.491 424.827 179.13C424.344 179.753 424.102 180.532 424.102 181.467C424.102 182.822 424.593 183.858 425.575 184.575C426.572 185.276 427.834 185.626 429.36 185.626Z" fill="#F1F1F1"/>
<path d="M390.374 191.818V155.922H400.025V162.185H400.399C401.054 159.957 402.152 158.274 403.694 157.137C405.237 155.984 407.013 155.408 409.023 155.408C409.521 155.408 410.059 155.439 410.635 155.501C411.212 155.564 411.718 155.649 412.154 155.758V164.592C411.687 164.452 411.04 164.327 410.215 164.218C409.389 164.109 408.633 164.055 407.948 164.055C406.483 164.055 405.174 164.374 404.022 165.013C402.884 165.636 401.981 166.508 401.311 167.63C400.656 168.752 400.329 170.045 400.329 171.51V191.818H390.374Z" fill="#F1F1F1"/>
<path d="M366.231 192.521C362.601 192.521 359.462 191.749 356.813 190.207C354.18 188.649 352.147 186.483 350.714 183.71C349.28 180.921 348.564 177.689 348.564 174.012C348.564 170.304 349.28 167.063 350.714 164.29C352.147 161.501 354.18 159.335 356.813 157.793C359.462 156.235 362.601 155.456 366.231 155.456C369.861 155.456 372.993 156.235 375.626 157.793C378.275 159.335 380.316 161.501 381.749 164.29C383.182 167.063 383.899 170.304 383.899 174.012C383.899 177.689 383.182 180.921 381.749 183.71C380.316 186.483 378.275 188.649 375.626 190.207C372.993 191.749 369.861 192.521 366.231 192.521ZM366.278 184.809C367.93 184.809 369.308 184.341 370.415 183.406C371.521 182.456 372.354 181.163 372.915 179.527C373.492 177.891 373.78 176.029 373.78 173.942C373.78 171.854 373.492 169.992 372.915 168.356C372.354 166.72 371.521 165.427 370.415 164.477C369.308 163.526 367.93 163.051 366.278 163.051C364.611 163.051 363.209 163.526 362.072 164.477C360.95 165.427 360.101 166.72 359.524 168.356C358.963 169.992 358.683 171.854 358.683 173.942C358.683 176.029 358.963 177.891 359.524 179.527C360.101 181.163 360.95 182.456 362.072 183.406C363.209 184.341 364.611 184.809 366.278 184.809Z" fill="#F1F1F1"/>
<path d="M308.364 205.28V155.923H318.179V161.953H318.623C319.059 160.987 319.69 160.005 320.516 159.008C321.357 157.996 322.448 157.154 323.788 156.484C325.143 155.799 326.826 155.456 328.836 155.456C331.453 155.456 333.868 156.142 336.08 157.513C338.293 158.868 340.061 160.917 341.385 163.659C342.71 166.385 343.372 169.805 343.372 173.918C343.372 177.922 342.725 181.303 341.432 184.061C340.155 186.803 338.41 188.883 336.197 190.3C334 191.703 331.539 192.404 328.812 192.404C326.88 192.404 325.237 192.084 323.881 191.446C322.541 190.807 321.443 190.004 320.586 189.038C319.729 188.057 319.075 187.068 318.623 186.07H318.319V205.28H308.364ZM318.109 173.871C318.109 176.006 318.405 177.868 318.997 179.457C319.589 181.046 320.446 182.285 321.568 183.173C322.689 184.045 324.053 184.481 325.657 184.481C327.278 184.481 328.649 184.037 329.771 183.149C330.892 182.246 331.741 180.999 332.318 179.41C332.91 177.805 333.206 175.959 333.206 173.871C333.206 171.799 332.918 169.976 332.341 168.403C331.765 166.829 330.916 165.599 329.794 164.71C328.672 163.822 327.293 163.378 325.657 163.378C324.037 163.378 322.666 163.807 321.544 164.664C320.438 165.521 319.589 166.736 318.997 168.309C318.405 169.883 318.109 171.737 318.109 173.871Z" fill="#F1F1F1"/>
<path d="M281.44 191.818V155.922H291.092V162.185H291.466C292.12 159.957 293.219 158.274 294.761 157.137C296.304 155.984 298.08 155.408 300.09 155.408C300.588 155.408 301.126 155.439 301.702 155.501C302.279 155.564 302.785 155.649 303.221 155.758V164.592C302.754 164.452 302.107 164.327 301.281 164.218C300.456 164.109 299.7 164.055 299.015 164.055C297.55 164.055 296.241 164.374 295.088 165.013C293.951 165.636 293.047 166.508 292.378 167.63C291.723 168.752 291.396 170.045 291.396 171.51V191.818H281.44Z" fill="#F1F1F1"/>
<path d="M257.307 192.521C253.677 192.521 250.538 191.749 247.889 190.207C245.256 188.649 243.223 186.483 241.79 183.71C240.357 180.921 239.64 177.689 239.64 174.012C239.64 170.304 240.357 167.063 241.79 164.29C243.223 161.501 245.256 159.335 247.889 157.793C250.538 156.235 253.677 155.456 257.307 155.456C260.938 155.456 264.069 156.235 266.702 157.793C269.351 159.335 271.392 161.501 272.825 164.29C274.258 167.063 274.975 170.304 274.975 174.012C274.975 177.689 274.258 180.921 272.825 183.71C271.392 186.483 269.351 188.649 266.702 190.207C264.069 191.749 260.938 192.521 257.307 192.521ZM257.354 184.809C259.006 184.809 260.384 184.341 261.491 183.406C262.597 182.456 263.43 181.163 263.991 179.527C264.568 177.891 264.856 176.029 264.856 173.942C264.856 171.854 264.568 169.992 263.991 168.356C263.43 166.72 262.597 165.427 261.491 164.477C260.384 163.526 259.006 163.051 257.354 163.051C255.687 163.051 254.285 163.526 253.148 164.477C252.026 165.427 251.177 166.72 250.6 168.356C250.039 169.992 249.759 171.854 249.759 173.942C249.759 176.029 250.039 177.891 250.6 179.527C251.177 181.163 252.026 182.456 253.148 183.406C254.285 184.341 255.687 184.809 257.354 184.809Z" fill="#F1F1F1"/>
<path d="M234.012 160.714H223.777C223.59 159.39 223.208 158.214 222.631 157.185C222.055 156.142 221.315 155.253 220.411 154.521C219.508 153.789 218.464 153.228 217.28 152.839C216.111 152.449 214.841 152.254 213.47 152.254C210.993 152.254 208.835 152.87 206.997 154.101C205.159 155.316 203.733 157.092 202.72 159.429C201.708 161.75 201.201 164.57 201.201 167.889C201.201 171.301 201.708 174.167 202.72 176.489C203.749 178.81 205.182 180.563 207.02 181.747C208.859 182.931 210.985 183.523 213.4 183.523C214.756 183.523 216.01 183.344 217.163 182.986C218.331 182.627 219.367 182.105 220.271 181.42C221.175 180.719 221.923 179.87 222.515 178.873C223.122 177.875 223.543 176.738 223.777 175.461L234.012 175.507C233.748 177.704 233.085 179.823 232.026 181.864C230.982 183.889 229.572 185.704 227.796 187.309C226.036 188.898 223.932 190.16 221.486 191.095C219.056 192.014 216.306 192.474 213.237 192.474C208.968 192.474 205.151 191.508 201.786 189.576C198.436 187.644 195.787 184.847 193.84 181.186C191.908 177.525 190.942 173.092 190.942 167.889C190.942 162.669 191.923 158.229 193.887 154.568C195.85 150.907 198.514 148.118 201.879 146.202C205.244 144.27 209.03 143.304 213.237 143.304C216.01 143.304 218.581 143.693 220.949 144.472C223.332 145.251 225.444 146.389 227.282 147.884C229.12 149.364 230.616 151.179 231.769 153.329C232.937 155.479 233.685 157.941 234.012 160.714Z" fill="#F1F1F1"/>
<path d="M448.387 140.288C445.162 140.288 442.397 139.844 440.091 138.956C437.801 138.083 435.978 136.892 434.623 135.38C433.267 133.869 432.387 132.171 431.982 130.286L441.19 129.047C441.47 129.764 441.914 130.434 442.522 131.057C443.129 131.68 443.932 132.179 444.929 132.553C445.941 132.942 447.172 133.137 448.621 133.137C450.787 133.137 452.571 132.607 453.973 131.548C455.391 130.504 456.1 128.751 456.1 126.29V119.723H455.679C455.243 120.72 454.588 121.662 453.716 122.55C452.843 123.438 451.722 124.163 450.351 124.724C448.98 125.285 447.344 125.565 445.443 125.565C442.748 125.565 440.294 124.942 438.081 123.695C435.885 122.434 434.132 120.509 432.823 117.923C431.53 115.321 430.884 112.034 430.884 108.061C430.884 103.995 431.546 100.598 432.87 97.8719C434.194 95.1454 435.955 93.1044 438.152 91.749C440.364 90.3935 442.787 89.7158 445.42 89.7158C447.429 89.7158 449.112 90.0586 450.467 90.7441C451.823 91.414 452.913 92.2553 453.739 93.268C454.58 94.2651 455.227 95.2467 455.679 96.2126H456.053V90.1832H465.938V126.43C465.938 129.483 465.19 132.039 463.695 134.095C462.199 136.152 460.127 137.694 457.478 138.722C454.845 139.766 451.815 140.288 448.387 140.288ZM448.598 118.087C450.203 118.087 451.558 117.689 452.664 116.895C453.786 116.085 454.643 114.932 455.235 113.436C455.842 111.925 456.146 110.118 456.146 108.014C456.146 105.911 455.85 104.088 455.258 102.546C454.666 100.988 453.809 99.7804 452.688 98.9235C451.566 98.0666 450.203 97.6382 448.598 97.6382C446.962 97.6382 445.583 98.0822 444.461 98.9703C443.34 99.8427 442.491 101.058 441.914 102.616C441.338 104.174 441.049 105.973 441.049 108.014C441.049 110.086 441.338 111.878 441.914 113.389C442.506 114.885 443.355 116.046 444.461 116.872C445.583 117.682 446.962 118.087 448.598 118.087Z" fill="#F1F1F1"/>
<path d="M401.227 105.327V126.079H391.271V90.1832H400.759V96.5164H401.18C401.974 94.4287 403.306 92.7773 405.176 91.562C407.046 90.3312 409.313 89.7158 411.977 89.7158C414.469 89.7158 416.643 90.2611 418.497 91.3517C420.351 92.4423 421.792 94.0003 422.82 96.0257C423.849 98.0355 424.363 100.435 424.363 103.224V126.079H414.407V105C414.423 102.803 413.862 101.089 412.725 99.8583C411.587 98.6119 410.021 97.9887 408.027 97.9887C406.687 97.9887 405.503 98.277 404.475 98.8534C403.462 99.4299 402.668 100.271 402.091 101.377C401.53 102.468 401.242 103.784 401.227 105.327Z" fill="#F1F1F1"/>
<path d="M373.349 126.079V90.1835H383.305V126.079H373.349ZM378.35 85.5563C376.87 85.5563 375.6 85.0655 374.541 84.084C373.497 83.0869 372.975 81.895 372.975 80.5084C372.975 79.1374 373.497 77.9611 374.541 76.9796C375.6 75.9824 376.87 75.4839 378.35 75.4839C379.83 75.4839 381.092 75.9824 382.136 76.9796C383.196 77.9611 383.725 79.1374 383.725 80.5084C383.725 81.895 383.196 83.0869 382.136 84.084C381.092 85.0655 379.83 85.5563 378.35 85.5563Z" fill="#F1F1F1"/>
<path d="M324.451 126.08L314.683 90.1841H324.755L330.317 114.302H330.644L336.44 90.1841H346.326L352.215 114.161H352.519L357.987 90.1841H368.036L358.291 126.08H347.751L341.582 103.505H341.138L334.968 126.08H324.451Z" fill="#F1F1F1"/>
<path d="M294.126 126.78C290.496 126.78 287.356 126.009 284.708 124.467C282.075 122.909 280.042 120.743 278.608 117.97C277.175 115.181 276.458 111.948 276.458 108.271C276.458 104.563 277.175 101.323 278.608 98.5496C280.042 95.7608 282.075 93.5952 284.708 92.0528C287.356 90.4948 290.496 89.7158 294.126 89.7158C297.756 89.7158 300.887 90.4948 303.52 92.0528C306.169 93.5952 308.21 95.7608 309.643 98.5496C311.077 101.323 311.793 104.563 311.793 108.271C311.793 111.948 311.077 115.181 309.643 117.97C308.21 120.743 306.169 122.909 303.52 124.467C300.887 126.009 297.756 126.78 294.126 126.78ZM294.173 119.068C295.824 119.068 297.203 118.601 298.309 117.666C299.415 116.716 300.249 115.423 300.81 113.787C301.386 112.151 301.674 110.289 301.674 108.201C301.674 106.114 301.386 104.252 300.81 102.616C300.249 100.98 299.415 99.6869 298.309 98.7366C297.203 97.7862 295.824 97.311 294.173 97.311C292.506 97.311 291.103 97.7862 289.966 98.7366C288.844 99.6869 287.995 100.98 287.419 102.616C286.858 104.252 286.577 106.114 286.577 108.201C286.577 110.289 286.858 112.151 287.419 113.787C287.995 115.423 288.844 116.716 289.966 117.666C291.103 118.601 292.506 119.068 294.173 119.068Z" fill="#F1F1F1"/>
<path d="M246.926 105.327V126.079H236.971V90.1832H246.459V96.5164H246.879C247.674 94.4287 249.006 92.7773 250.876 91.562C252.745 90.3312 255.012 89.7158 257.676 89.7158C260.169 89.7158 262.342 90.2611 264.196 91.3517C266.05 92.4423 267.492 94.0003 268.52 96.0257C269.548 98.0355 270.062 100.435 270.062 103.224V126.079H260.107V105C260.122 102.803 259.561 101.089 258.424 99.8583C257.287 98.6119 255.721 97.9887 253.727 97.9887C252.387 97.9887 251.203 98.277 250.175 98.8534C249.162 99.4299 248.367 100.271 247.791 101.377C247.23 102.468 246.942 103.784 246.926 105.327Z" fill="#F1F1F1"/>
<path d="M191.784 126.079V78.2178H201.903V99.3207H202.534L219.758 78.2178H231.886L214.125 99.6479L232.097 126.079H219.991L206.881 106.402L201.903 112.478V126.079H191.784Z" fill="#F1F1F1"/>
<path d="M299.445 24.4443V31.9227H277.828V24.4443H299.445ZM282.735 15.8442H292.691V49.3098C292.691 50.229 292.831 50.9457 293.111 51.4598C293.392 51.9584 293.781 52.3089 294.28 52.5114C294.794 52.714 295.386 52.8152 296.056 52.8152C296.523 52.8152 296.991 52.7763 297.458 52.6984C297.926 52.6049 298.284 52.5348 298.533 52.4881L300.099 59.8963C299.6 60.0521 298.899 60.2313 297.996 60.4338C297.092 60.6519 295.994 60.7843 294.701 60.8311C292.301 60.9246 290.198 60.6052 288.391 59.8729C286.599 59.1407 285.205 58.0033 284.208 56.4609C283.21 54.9185 282.72 52.971 282.735 50.6185V15.8442Z" fill="#F1F1F1"/>
<path d="M256.211 61.0425C252.581 61.0425 249.442 60.2713 246.793 58.7289C244.16 57.1709 242.127 55.0053 240.694 52.2321C239.26 49.4433 238.544 46.2105 238.544 42.5336C238.544 38.8256 239.26 35.585 240.694 32.8118C242.127 30.023 244.16 27.8574 246.793 26.315C249.442 24.757 252.581 23.978 256.211 23.978C259.841 23.978 262.973 24.757 265.606 26.315C268.254 27.8574 270.295 30.023 271.729 32.8118C273.162 35.585 273.879 38.8256 273.879 42.5336C273.879 46.2105 273.162 49.4433 271.729 52.2321C270.295 55.0053 268.254 57.1709 265.606 58.7289C262.973 60.2713 259.841 61.0425 256.211 61.0425ZM256.258 53.3305C257.909 53.3305 259.288 52.8631 260.394 51.9283C261.5 50.9779 262.334 49.6848 262.895 48.0489C263.471 46.413 263.76 44.5512 263.76 42.4635C263.76 40.3758 263.471 38.514 262.895 36.8782C262.334 35.2423 261.5 33.9491 260.394 32.9988C259.288 32.0484 257.909 31.5732 256.258 31.5732C254.591 31.5732 253.189 32.0484 252.051 32.9988C250.93 33.9491 250.08 35.2423 249.504 36.8782C248.943 38.514 248.663 40.3758 248.663 42.4635C248.663 44.5512 248.943 46.413 249.504 48.0489C250.08 49.6848 250.93 50.9779 252.051 51.9283C253.189 52.8631 254.591 53.3305 256.258 53.3305Z" fill="#F1F1F1"/>
<path d="M231.816 12.479V60.3403H223.076L202.254 30.2167H201.903V60.3403H191.784V12.479H200.664L221.323 42.5793H221.744V12.479H231.816Z" fill="#F1F1F1"/>
<path d="M595.117 152.653V135.868H600.392C601.611 135.868 602.612 136.092 603.395 136.54C604.177 136.983 604.757 137.592 605.133 138.368C605.509 139.144 605.697 140.026 605.697 141.015C605.697 142.004 605.509 142.881 605.133 143.646C604.757 144.411 604.18 145.012 603.402 145.449C602.625 145.88 601.632 146.096 600.422 146.096H596.154V144.26H600.361C601.195 144.26 601.865 144.129 602.373 143.867C602.887 143.605 603.258 143.233 603.486 142.752C603.72 142.266 603.837 141.687 603.837 141.015C603.837 140.343 603.72 139.756 603.486 139.253C603.253 138.75 602.879 138.362 602.366 138.089C601.853 137.811 601.174 137.671 600.331 137.671H597.007V152.653H595.117ZM602.465 145.113L606.307 152.653H604.111L600.331 145.113H602.465Z" fill="#F1F1F1"/>
<path d="M0.499664 68.7415L0.499664 137.278C0.499664 175.119 31.186 205.805 69.0365 205.805C106.887 205.805 137.573 175.119 137.573 137.268V68.7315C137.573 30.881 106.887 0.194611 69.0365 0.194611C31.186 0.194611 0.499664 30.891 0.499664 68.7415ZM128.39 103.005C116.543 123.493 94.3975 137.268 69.0265 137.268C43.6555 137.268 21.5099 123.493 9.66337 103.005C21.5099 82.5172 43.6555 68.7415 69.0265 68.7415C94.3975 68.7415 116.543 82.5172 128.39 103.005Z" fill="#F1F1F1"/>
<path fill-rule="evenodd" clip-rule="evenodd" d="M600.716 158.25C608.441 158.25 614.703 151.987 614.703 144.263C614.703 136.538 608.441 130.275 600.716 130.275C592.991 130.275 586.729 136.538 586.729 144.263C586.729 151.987 592.991 158.25 600.716 158.25ZM600.716 161.047C609.986 161.047 617.5 153.532 617.5 144.263C617.5 134.993 609.986 127.478 600.716 127.478C591.446 127.478 583.931 134.993 583.931 144.263C583.931 153.532 591.446 161.047 600.716 161.047Z" fill="#F1F1F1"/>
</svg>
